<mxfile host="app.diagrams.net" modified="2023-10-14T15:41:38.811Z" agent="Mozilla/5.0 (Windows NT 10.0; Win64; x64) AppleWebKit/537.36 (KHTML, like Gecko) Chrome/117.0.0.0 Safari/537.36" etag="Zo6C0Wt9EofBOBvv2KD7" version="22.0.4" type="device" pages="6">
  <diagram name="See Poll" id="MbawgB6gwr7xA-nJMaMM">
    <mxGraphModel dx="1050" dy="566" grid="1" gridSize="10" guides="1" tooltips="1" connect="1" arrows="1" fold="1" page="1" pageScale="1" pageWidth="827" pageHeight="1169" math="0" shadow="0">
      <root>
        <mxCell id="0" />
        <mxCell id="1" parent="0" />
        <mxCell id="cbZRMNUV45G-gCGNC3SA-2" value="Poll" style="rounded=0;whiteSpace=wrap;html=1;" parent="1" vertex="1">
          <mxGeometry x="270" y="60" width="120" height="60" as="geometry" />
        </mxCell>
        <mxCell id="cbZRMNUV45G-gCGNC3SA-3" value="Database" style="shape=cylinder3;whiteSpace=wrap;html=1;boundedLbl=1;backgroundOutline=1;size=15;" parent="1" vertex="1">
          <mxGeometry x="690" y="40" width="60" height="80" as="geometry" />
        </mxCell>
        <mxCell id="cbZRMNUV45G-gCGNC3SA-5" value="" style="endArrow=none;dashed=1;html=1;dashPattern=1 3;strokeWidth=2;rounded=0;entryX=0.5;entryY=1;entryDx=0;entryDy=0;" parent="1" source="cbZRMNUV45G-gCGNC3SA-17" target="cbZRMNUV45G-gCGNC3SA-2" edge="1">
          <mxGeometry width="50" height="50" relative="1" as="geometry">
            <mxPoint x="480" y="910.7999267578125" as="sourcePoint" />
            <mxPoint x="479.5" y="130" as="targetPoint" />
          </mxGeometry>
        </mxCell>
        <mxCell id="cbZRMNUV45G-gCGNC3SA-6" value="" style="endArrow=none;dashed=1;html=1;dashPattern=1 3;strokeWidth=2;rounded=0;entryX=0.5;entryY=1;entryDx=0;entryDy=0;entryPerimeter=0;" parent="1" source="cbZRMNUV45G-gCGNC3SA-18" target="cbZRMNUV45G-gCGNC3SA-3" edge="1">
          <mxGeometry width="50" height="50" relative="1" as="geometry">
            <mxPoint x="720" y="911.5999755859375" as="sourcePoint" />
            <mxPoint x="719.5" y="120" as="targetPoint" />
          </mxGeometry>
        </mxCell>
        <mxCell id="cbZRMNUV45G-gCGNC3SA-7" value="Member" style="shape=umlActor;verticalLabelPosition=bottom;verticalAlign=top;html=1;outlineConnect=0;" parent="1" vertex="1">
          <mxGeometry x="20" y="50" width="30" height="60" as="geometry" />
        </mxCell>
        <mxCell id="cbZRMNUV45G-gCGNC3SA-9" value="" style="endArrow=classic;html=1;rounded=0;entryX=0.097;entryY=1.3;entryDx=0;entryDy=0;entryPerimeter=0;" parent="1" target="cbZRMNUV45G-gCGNC3SA-17" edge="1">
          <mxGeometry width="50" height="50" relative="1" as="geometry">
            <mxPoint x="80" y="213" as="sourcePoint" />
            <mxPoint x="270" y="199" as="targetPoint" />
          </mxGeometry>
        </mxCell>
        <mxCell id="cbZRMNUV45G-gCGNC3SA-10" value="get_poll(poll_id)" style="edgeLabel;html=1;align=center;verticalAlign=middle;resizable=0;points=[];" parent="cbZRMNUV45G-gCGNC3SA-9" vertex="1" connectable="0">
          <mxGeometry x="0.1347" y="-4" relative="1" as="geometry">
            <mxPoint x="-18" y="-4" as="offset" />
          </mxGeometry>
        </mxCell>
        <mxCell id="cbZRMNUV45G-gCGNC3SA-11" value="" style="endArrow=classic;html=1;rounded=0;" parent="1" edge="1">
          <mxGeometry width="50" height="50" relative="1" as="geometry">
            <mxPoint x="350" y="230" as="sourcePoint" />
            <mxPoint x="710" y="230" as="targetPoint" />
          </mxGeometry>
        </mxCell>
        <mxCell id="cbZRMNUV45G-gCGNC3SA-12" value="get_poll(poll_id)" style="edgeLabel;html=1;align=center;verticalAlign=middle;resizable=0;points=[];" parent="cbZRMNUV45G-gCGNC3SA-11" vertex="1" connectable="0">
          <mxGeometry x="0.1347" y="-4" relative="1" as="geometry">
            <mxPoint x="-18" y="-4" as="offset" />
          </mxGeometry>
        </mxCell>
        <mxCell id="cbZRMNUV45G-gCGNC3SA-13" value="" style="endArrow=classic;html=1;rounded=0;dashed=1;" parent="1" edge="1">
          <mxGeometry width="50" height="50" relative="1" as="geometry">
            <mxPoint x="710" y="260" as="sourcePoint" />
            <mxPoint x="340" y="260" as="targetPoint" />
          </mxGeometry>
        </mxCell>
        <mxCell id="cbZRMNUV45G-gCGNC3SA-15" value="" style="endArrow=classic;html=1;rounded=0;dashed=1;exitX=0.467;exitY=0.9;exitDx=0;exitDy=0;exitPerimeter=0;" parent="1" edge="1">
          <mxGeometry width="50" height="50" relative="1" as="geometry">
            <mxPoint x="326" y="370.0999999999999" as="sourcePoint" />
            <mxPoint x="60" y="370" as="targetPoint" />
          </mxGeometry>
        </mxCell>
        <mxCell id="nZ8tobc6WYCCOkMk4FP1-5" value="poll" style="edgeLabel;html=1;align=center;verticalAlign=middle;resizable=0;points=[];" parent="cbZRMNUV45G-gCGNC3SA-15" vertex="1" connectable="0">
          <mxGeometry x="0.0824" relative="1" as="geometry">
            <mxPoint as="offset" />
          </mxGeometry>
        </mxCell>
        <mxCell id="cbZRMNUV45G-gCGNC3SA-17" value="" style="rounded=0;whiteSpace=wrap;html=1;direction=south;" parent="1" vertex="1">
          <mxGeometry x="325" y="170" width="10" height="440" as="geometry" />
        </mxCell>
        <mxCell id="cbZRMNUV45G-gCGNC3SA-18" value="" style="rounded=0;whiteSpace=wrap;html=1;direction=south;" parent="1" vertex="1">
          <mxGeometry x="715" y="210" width="10" height="50" as="geometry" />
        </mxCell>
        <mxCell id="cbZRMNUV45G-gCGNC3SA-33" value="" style="endArrow=none;dashed=1;html=1;dashPattern=1 3;strokeWidth=2;rounded=0;entryX=1;entryY=0.5;entryDx=0;entryDy=0;exitX=0.901;exitY=1.002;exitDx=0;exitDy=0;exitPerimeter=0;" parent="1" source="9DKozMH6fIDzWKKJBeOX-1" edge="1">
          <mxGeometry width="50" height="50" relative="1" as="geometry">
            <mxPoint x="720" y="470" as="sourcePoint" />
            <mxPoint x="720" y="260" as="targetPoint" />
          </mxGeometry>
        </mxCell>
        <mxCell id="9DKozMH6fIDzWKKJBeOX-1" value="alt" style="shape=umlFrame;whiteSpace=wrap;html=1;pointerEvents=0;" parent="1" vertex="1">
          <mxGeometry x="10" y="320" width="790" height="320" as="geometry" />
        </mxCell>
        <mxCell id="9DKozMH6fIDzWKKJBeOX-2" value="" style="endArrow=none;dashed=1;html=1;dashPattern=1 3;strokeWidth=2;rounded=0;exitX=0.065;exitY=1.004;exitDx=0;exitDy=0;exitPerimeter=0;" parent="1" source="9DKozMH6fIDzWKKJBeOX-1" edge="1">
          <mxGeometry width="50" height="50" relative="1" as="geometry">
            <mxPoint x="10" y="180" as="sourcePoint" />
            <mxPoint x="60" y="130" as="targetPoint" />
          </mxGeometry>
        </mxCell>
        <mxCell id="9DKozMH6fIDzWKKJBeOX-5" value="" style="endArrow=none;dashed=1;html=1;dashPattern=1 3;strokeWidth=2;rounded=0;" parent="1" target="9DKozMH6fIDzWKKJBeOX-1" edge="1">
          <mxGeometry width="50" height="50" relative="1" as="geometry">
            <mxPoint x="10" y="510" as="sourcePoint" />
            <mxPoint x="60" y="460" as="targetPoint" />
            <Array as="points">
              <mxPoint x="800" y="510" />
            </Array>
          </mxGeometry>
        </mxCell>
        <mxCell id="OwvyEyIDzh_XeBHY1Jg9-1" value="[Status = 200]" style="text;html=1;strokeColor=none;fillColor=none;align=center;verticalAlign=middle;whiteSpace=wrap;rounded=0;" parent="1" vertex="1">
          <mxGeometry x="75" y="320" width="80" height="30" as="geometry" />
        </mxCell>
        <mxCell id="Nv_22ibphT3K6-7DU8kg-1" value="[Status not = 200]" style="text;html=1;strokeColor=none;fillColor=none;align=center;verticalAlign=middle;whiteSpace=wrap;rounded=0;" parent="1" vertex="1">
          <mxGeometry x="60" y="510" width="110" height="30" as="geometry" />
        </mxCell>
        <mxCell id="bRWqDX10JK3F_e-lFcU6-3" value="Guest" style="shape=umlActor;verticalLabelPosition=bottom;verticalAlign=top;html=1;outlineConnect=0;" parent="1" vertex="1">
          <mxGeometry x="70" y="50" width="30" height="60" as="geometry" />
        </mxCell>
        <mxCell id="nZ8tobc6WYCCOkMk4FP1-3" value="status,poll" style="edgeLabel;html=1;align=center;verticalAlign=middle;resizable=0;points=[];" parent="1" vertex="1" connectable="0">
          <mxGeometry x="520" y="260" as="geometry">
            <mxPoint x="-11" y="-4" as="offset" />
          </mxGeometry>
        </mxCell>
        <mxCell id="nZ8tobc6WYCCOkMk4FP1-19" value="" style="endArrow=classic;html=1;rounded=0;dashed=1;exitX=0.675;exitY=1;exitDx=0;exitDy=0;exitPerimeter=0;" parent="1" edge="1">
          <mxGeometry width="50" height="50" relative="1" as="geometry">
            <mxPoint x="325" y="584" as="sourcePoint" />
            <mxPoint x="80" y="584" as="targetPoint" />
          </mxGeometry>
        </mxCell>
        <mxCell id="nZ8tobc6WYCCOkMk4FP1-20" value="error_message" style="edgeLabel;html=1;align=center;verticalAlign=middle;resizable=0;points=[];" parent="nZ8tobc6WYCCOkMk4FP1-19" vertex="1" connectable="0">
          <mxGeometry x="-0.2932" relative="1" as="geometry">
            <mxPoint x="-23" y="1" as="offset" />
          </mxGeometry>
        </mxCell>
        <mxCell id="UEiC1wNBpydYhlisrAKi-5" value="" style="endArrow=none;dashed=1;html=1;dashPattern=1 3;strokeWidth=2;rounded=0;exitX=0.405;exitY=1.004;exitDx=0;exitDy=0;exitPerimeter=0;" parent="1" source="9DKozMH6fIDzWKKJBeOX-1" edge="1">
          <mxGeometry width="50" height="50" relative="1" as="geometry">
            <mxPoint x="280" y="660" as="sourcePoint" />
            <mxPoint x="330" y="610" as="targetPoint" />
          </mxGeometry>
        </mxCell>
      </root>
    </mxGraphModel>
  </diagram>
  <diagram id="M6Z3XkHeJSywot1wPrp6" name="Change Vote">
    <mxGraphModel dx="1050" dy="566" grid="1" gridSize="10" guides="1" tooltips="1" connect="1" arrows="1" fold="1" page="1" pageScale="1" pageWidth="850" pageHeight="1100" math="0" shadow="0">
      <root>
        <mxCell id="0" />
        <mxCell id="1" parent="0" />
        <mxCell id="cYH90LevwxkH5kx2MdU6-2" value="Poll" style="rounded=0;whiteSpace=wrap;html=1;" parent="1" vertex="1">
          <mxGeometry x="298" y="190" width="120" height="60" as="geometry" />
        </mxCell>
        <mxCell id="cYH90LevwxkH5kx2MdU6-3" value="Database" style="shape=cylinder3;whiteSpace=wrap;html=1;boundedLbl=1;backgroundOutline=1;size=15;" parent="1" vertex="1">
          <mxGeometry x="733" y="170" width="60" height="80" as="geometry" />
        </mxCell>
        <mxCell id="cYH90LevwxkH5kx2MdU6-5" value="" style="endArrow=none;dashed=1;html=1;dashPattern=1 3;strokeWidth=2;rounded=0;entryX=0.5;entryY=1;entryDx=0;entryDy=0;" parent="1" source="cYH90LevwxkH5kx2MdU6-17" target="cYH90LevwxkH5kx2MdU6-2" edge="1">
          <mxGeometry width="50" height="50" relative="1" as="geometry">
            <mxPoint x="523" y="1040.7999267578125" as="sourcePoint" />
            <mxPoint x="522.5" y="260" as="targetPoint" />
          </mxGeometry>
        </mxCell>
        <mxCell id="cYH90LevwxkH5kx2MdU6-6" value="" style="endArrow=none;dashed=1;html=1;dashPattern=1 3;strokeWidth=2;rounded=0;entryX=0.5;entryY=1;entryDx=0;entryDy=0;entryPerimeter=0;" parent="1" source="cYH90LevwxkH5kx2MdU6-18" target="cYH90LevwxkH5kx2MdU6-3" edge="1">
          <mxGeometry width="50" height="50" relative="1" as="geometry">
            <mxPoint x="763" y="1041.5999755859375" as="sourcePoint" />
            <mxPoint x="762.5" y="250" as="targetPoint" />
          </mxGeometry>
        </mxCell>
        <mxCell id="cYH90LevwxkH5kx2MdU6-7" value="Member" style="shape=umlActor;verticalLabelPosition=bottom;verticalAlign=top;html=1;outlineConnect=0;" parent="1" vertex="1">
          <mxGeometry x="83" y="180" width="30" height="60" as="geometry" />
        </mxCell>
        <mxCell id="cYH90LevwxkH5kx2MdU6-11" value="" style="endArrow=classic;html=1;rounded=0;entryX=0.25;entryY=1;entryDx=0;entryDy=0;" parent="1" target="cYH90LevwxkH5kx2MdU6-18" edge="1">
          <mxGeometry width="50" height="50" relative="1" as="geometry">
            <mxPoint x="363" y="353" as="sourcePoint" />
            <mxPoint x="733" y="350" as="targetPoint" />
          </mxGeometry>
        </mxCell>
        <mxCell id="cYH90LevwxkH5kx2MdU6-12" value="update_vote(poll_id,username,new_option)" style="edgeLabel;html=1;align=center;verticalAlign=middle;resizable=0;points=[];" parent="cYH90LevwxkH5kx2MdU6-11" vertex="1" connectable="0">
          <mxGeometry x="0.1347" y="-4" relative="1" as="geometry">
            <mxPoint x="-18" y="-14" as="offset" />
          </mxGeometry>
        </mxCell>
        <mxCell id="cYH90LevwxkH5kx2MdU6-15" value="" style="endArrow=classic;html=1;rounded=0;dashed=1;" parent="1" edge="1">
          <mxGeometry width="50" height="50" relative="1" as="geometry">
            <mxPoint x="353" y="440" as="sourcePoint" />
            <mxPoint x="53" y="440" as="targetPoint" />
          </mxGeometry>
        </mxCell>
        <mxCell id="cYH90LevwxkH5kx2MdU6-17" value="" style="rounded=0;whiteSpace=wrap;html=1;direction=south;" parent="1" vertex="1">
          <mxGeometry x="353" y="320" width="10" height="400" as="geometry" />
        </mxCell>
        <mxCell id="cYH90LevwxkH5kx2MdU6-18" value="" style="rounded=0;whiteSpace=wrap;html=1;direction=south;" parent="1" vertex="1">
          <mxGeometry x="758" y="340" width="10" height="50" as="geometry" />
        </mxCell>
        <mxCell id="cYH90LevwxkH5kx2MdU6-33" value="" style="endArrow=none;dashed=1;html=1;dashPattern=1 3;strokeWidth=2;rounded=0;entryX=1;entryY=0.5;entryDx=0;entryDy=0;" parent="1" target="cYH90LevwxkH5kx2MdU6-18" edge="1">
          <mxGeometry width="50" height="50" relative="1" as="geometry">
            <mxPoint x="763" y="520" as="sourcePoint" />
            <mxPoint x="483" y="440" as="targetPoint" />
          </mxGeometry>
        </mxCell>
        <mxCell id="DmmRurxR8W9H8vUt7vt4-2" value="" style="endArrow=none;dashed=1;html=1;dashPattern=1 3;strokeWidth=2;rounded=0;exitX=0.126;exitY=0.999;exitDx=0;exitDy=0;exitPerimeter=0;" parent="1" edge="1">
          <mxGeometry width="50" height="50" relative="1" as="geometry">
            <mxPoint x="53.210000000000036" y="729.9950000000001" as="sourcePoint" />
            <mxPoint x="53" y="260.46000000000004" as="targetPoint" />
          </mxGeometry>
        </mxCell>
        <mxCell id="DmmRurxR8W9H8vUt7vt4-4" value="" style="endArrow=none;dashed=1;html=1;dashPattern=1 3;strokeWidth=2;rounded=0;entryX=1.004;entryY=0.63;entryDx=0;entryDy=0;entryPerimeter=0;exitX=0.001;exitY=0.639;exitDx=0;exitDy=0;exitPerimeter=0;" parent="1" source="DmmRurxR8W9H8vUt7vt4-5" target="DmmRurxR8W9H8vUt7vt4-5" edge="1">
          <mxGeometry width="50" height="50" relative="1" as="geometry">
            <mxPoint x="-2" y="630" as="sourcePoint" />
            <mxPoint x="48" y="580" as="targetPoint" />
          </mxGeometry>
        </mxCell>
        <mxCell id="DmmRurxR8W9H8vUt7vt4-5" value="alt" style="shape=umlFrame;whiteSpace=wrap;html=1;pointerEvents=0;" parent="1" vertex="1">
          <mxGeometry x="13" y="400" width="820" height="330" as="geometry" />
        </mxCell>
        <mxCell id="DmmRurxR8W9H8vUt7vt4-7" value="" style="endArrow=none;dashed=1;html=1;rounded=0;" parent="1" edge="1">
          <mxGeometry width="50" height="50" relative="1" as="geometry">
            <mxPoint x="763" y="655" as="sourcePoint" />
            <mxPoint x="763" y="570" as="targetPoint" />
          </mxGeometry>
        </mxCell>
        <mxCell id="DmmRurxR8W9H8vUt7vt4-9" value="" style="endArrow=classic;html=1;rounded=0;dashed=1;" parent="1" edge="1">
          <mxGeometry width="50" height="50" relative="1" as="geometry">
            <mxPoint x="351" y="710" as="sourcePoint" />
            <mxPoint x="53" y="710" as="targetPoint" />
          </mxGeometry>
        </mxCell>
        <mxCell id="SOZElv4f3YhzH1DjyDt5-1" value="[Status =200]" style="text;html=1;strokeColor=none;fillColor=none;align=center;verticalAlign=middle;whiteSpace=wrap;rounded=0;" parent="1" vertex="1">
          <mxGeometry x="73" y="400" width="80" height="30" as="geometry" />
        </mxCell>
        <mxCell id="-CgdSzFvVUA9JV4os9K8-1" value="[Status not =200]" style="text;html=1;strokeColor=none;fillColor=none;align=center;verticalAlign=middle;whiteSpace=wrap;rounded=0;" parent="1" vertex="1">
          <mxGeometry x="53" y="625" width="110" height="30" as="geometry" />
        </mxCell>
        <mxCell id="7_1zcQO2XBQb6DFrcOaL-1" value="change_vote(poll_id,username,new_option)" style="endArrow=classic;html=1;rounded=0;" parent="1" edge="1">
          <mxGeometry x="-0.0244" y="10" width="50" height="50" relative="1" as="geometry">
            <mxPoint x="53" y="330" as="sourcePoint" />
            <mxPoint x="353" y="330" as="targetPoint" />
            <mxPoint as="offset" />
          </mxGeometry>
        </mxCell>
        <mxCell id="7_1zcQO2XBQb6DFrcOaL-4" value="poll" style="edgeLabel;html=1;align=center;verticalAlign=middle;resizable=0;points=[];" parent="1" vertex="1" connectable="0">
          <mxGeometry x="163" y="440" as="geometry" />
        </mxCell>
        <mxCell id="eHsEjnu7jdq3tX8v1_-g-1" value="" style="endArrow=none;dashed=1;html=1;dashPattern=1 3;strokeWidth=2;rounded=0;" parent="1" edge="1">
          <mxGeometry width="50" height="50" relative="1" as="geometry">
            <mxPoint x="763" y="570" as="sourcePoint" />
            <mxPoint x="763" y="520" as="targetPoint" />
          </mxGeometry>
        </mxCell>
        <mxCell id="3WmqoUfDwYOTIdN0RJfq-18" value="" style="endArrow=none;dashed=1;html=1;rounded=0;" parent="1" edge="1">
          <mxGeometry width="50" height="50" relative="1" as="geometry">
            <mxPoint x="763" y="730" as="sourcePoint" />
            <mxPoint x="763" y="650" as="targetPoint" />
          </mxGeometry>
        </mxCell>
        <mxCell id="3WmqoUfDwYOTIdN0RJfq-21" value="error_message" style="edgeLabel;html=1;align=center;verticalAlign=middle;resizable=0;points=[];" parent="1" vertex="1" connectable="0">
          <mxGeometry x="198" y="710" as="geometry" />
        </mxCell>
        <mxCell id="cyD31JJf4jD1KvkMsJo5-3" value="" style="endArrow=classic;html=1;rounded=0;dashed=1;exitX=0.75;exitY=1;exitDx=0;exitDy=0;" parent="1" source="cYH90LevwxkH5kx2MdU6-18" edge="1">
          <mxGeometry width="50" height="50" relative="1" as="geometry">
            <mxPoint x="663" y="380" as="sourcePoint" />
            <mxPoint x="363" y="380" as="targetPoint" />
          </mxGeometry>
        </mxCell>
        <mxCell id="cyD31JJf4jD1KvkMsJo5-4" value="status,poll" style="edgeLabel;html=1;align=center;verticalAlign=middle;resizable=0;points=[];" parent="cyD31JJf4jD1KvkMsJo5-3" vertex="1" connectable="0">
          <mxGeometry x="-0.0531" y="3" relative="1" as="geometry">
            <mxPoint as="offset" />
          </mxGeometry>
        </mxCell>
        <mxCell id="7YTWm6vNsIDTpa0Vl6rZ-2" value="" style="endArrow=none;dashed=1;html=1;dashPattern=1 3;strokeWidth=2;rounded=0;exitX=0.422;exitY=1.003;exitDx=0;exitDy=0;exitPerimeter=0;" parent="1" source="DmmRurxR8W9H8vUt7vt4-5" edge="1">
          <mxGeometry width="50" height="50" relative="1" as="geometry">
            <mxPoint x="313" y="770" as="sourcePoint" />
            <mxPoint x="359" y="720" as="targetPoint" />
          </mxGeometry>
        </mxCell>
      </root>
    </mxGraphModel>
  </diagram>
  <diagram id="_kSlOjxQBmy6igb6X167" name="Vote Poll">
    <mxGraphModel dx="1050" dy="566" grid="1" gridSize="10" guides="1" tooltips="1" connect="1" arrows="1" fold="1" page="1" pageScale="1" pageWidth="850" pageHeight="1100" math="0" shadow="0">
      <root>
        <mxCell id="0" />
        <mxCell id="1" parent="0" />
        <mxCell id="H6BCaSkyYf0uktOBrBVh-2" value="Poll" style="rounded=0;whiteSpace=wrap;html=1;" parent="1" vertex="1">
          <mxGeometry x="275" y="50" width="120" height="60" as="geometry" />
        </mxCell>
        <mxCell id="H6BCaSkyYf0uktOBrBVh-3" value="Database" style="shape=cylinder3;whiteSpace=wrap;html=1;boundedLbl=1;backgroundOutline=1;size=15;" parent="1" vertex="1">
          <mxGeometry x="688" y="30" width="60" height="80" as="geometry" />
        </mxCell>
        <mxCell id="H6BCaSkyYf0uktOBrBVh-5" value="" style="endArrow=none;dashed=1;html=1;dashPattern=1 3;strokeWidth=2;rounded=0;entryX=0.5;entryY=1;entryDx=0;entryDy=0;" parent="1" source="p1I2r3HuQcwhxJar93CB-6" target="H6BCaSkyYf0uktOBrBVh-2" edge="1">
          <mxGeometry width="50" height="50" relative="1" as="geometry">
            <mxPoint x="478" y="190" as="sourcePoint" />
            <mxPoint x="477.5" y="120" as="targetPoint" />
          </mxGeometry>
        </mxCell>
        <mxCell id="H6BCaSkyYf0uktOBrBVh-6" value="" style="endArrow=none;dashed=1;html=1;dashPattern=1 3;strokeWidth=2;rounded=0;entryX=0.5;entryY=1;entryDx=0;entryDy=0;entryPerimeter=0;" parent="1" source="H6BCaSkyYf0uktOBrBVh-38" target="H6BCaSkyYf0uktOBrBVh-3" edge="1">
          <mxGeometry width="50" height="50" relative="1" as="geometry">
            <mxPoint x="718" y="901.5999755859375" as="sourcePoint" />
            <mxPoint x="717.5" y="110" as="targetPoint" />
          </mxGeometry>
        </mxCell>
        <mxCell id="H6BCaSkyYf0uktOBrBVh-7" value="Member" style="shape=umlActor;verticalLabelPosition=bottom;verticalAlign=top;html=1;outlineConnect=0;" parent="1" vertex="1">
          <mxGeometry x="38" y="50" width="30" height="60" as="geometry" />
        </mxCell>
        <mxCell id="H6BCaSkyYf0uktOBrBVh-8" value="vote_poll(username,poll_id,vote)" style="endArrow=classic;html=1;rounded=0;" parent="1" edge="1">
          <mxGeometry y="10" width="50" height="50" relative="1" as="geometry">
            <mxPoint x="68" y="190" as="sourcePoint" />
            <mxPoint x="328" y="190" as="targetPoint" />
            <mxPoint as="offset" />
          </mxGeometry>
        </mxCell>
        <mxCell id="H6BCaSkyYf0uktOBrBVh-11" value="" style="endArrow=classic;html=1;rounded=0;exitX=0.052;exitY=0;exitDx=0;exitDy=0;exitPerimeter=0;" parent="1" source="p1I2r3HuQcwhxJar93CB-6" edge="1">
          <mxGeometry width="50" height="50" relative="1" as="geometry">
            <mxPoint x="498" y="210" as="sourcePoint" />
            <mxPoint x="688" y="210" as="targetPoint" />
          </mxGeometry>
        </mxCell>
        <mxCell id="H6BCaSkyYf0uktOBrBVh-12" value="get_points(username)" style="edgeLabel;html=1;align=center;verticalAlign=middle;resizable=0;points=[];" parent="H6BCaSkyYf0uktOBrBVh-11" vertex="1" connectable="0">
          <mxGeometry x="0.1347" y="-4" relative="1" as="geometry">
            <mxPoint x="-18" y="-4" as="offset" />
          </mxGeometry>
        </mxCell>
        <mxCell id="H6BCaSkyYf0uktOBrBVh-13" value="" style="endArrow=classic;html=1;rounded=0;dashed=1;" parent="1" edge="1">
          <mxGeometry width="50" height="50" relative="1" as="geometry">
            <mxPoint x="688" y="240" as="sourcePoint" />
            <mxPoint x="350" y="240" as="targetPoint" />
          </mxGeometry>
        </mxCell>
        <mxCell id="p1I2r3HuQcwhxJar93CB-4" value="points" style="edgeLabel;html=1;align=center;verticalAlign=middle;resizable=0;points=[];" parent="H6BCaSkyYf0uktOBrBVh-13" vertex="1" connectable="0">
          <mxGeometry x="0.0842" relative="1" as="geometry">
            <mxPoint as="offset" />
          </mxGeometry>
        </mxCell>
        <mxCell id="H6BCaSkyYf0uktOBrBVh-15" value="" style="endArrow=classic;html=1;rounded=0;dashed=1;exitX=0.924;exitY=1.6;exitDx=0;exitDy=0;exitPerimeter=0;" parent="1" edge="1">
          <mxGeometry width="50" height="50" relative="1" as="geometry">
            <mxPoint x="324" y="549.0000000000002" as="sourcePoint" />
            <mxPoint x="80" y="549.1600000000001" as="targetPoint" />
          </mxGeometry>
        </mxCell>
        <mxCell id="3EeCmek_eDIR3gRcjCjt-6" value="success_message" style="edgeLabel;html=1;align=center;verticalAlign=middle;resizable=0;points=[];" parent="H6BCaSkyYf0uktOBrBVh-15" vertex="1" connectable="0">
          <mxGeometry x="0.1059" relative="1" as="geometry">
            <mxPoint as="offset" />
          </mxGeometry>
        </mxCell>
        <mxCell id="H6BCaSkyYf0uktOBrBVh-20" value="" style="endArrow=classic;html=1;rounded=0;exitX=0.606;exitY=0;exitDx=0;exitDy=0;exitPerimeter=0;" parent="1" edge="1">
          <mxGeometry width="50" height="50" relative="1" as="geometry">
            <mxPoint x="350" y="440" as="sourcePoint" />
            <mxPoint x="698" y="440.03999999999996" as="targetPoint" />
          </mxGeometry>
        </mxCell>
        <mxCell id="H6BCaSkyYf0uktOBrBVh-21" value="insert_vote(username,poll_id,vote)" style="edgeLabel;html=1;align=center;verticalAlign=middle;resizable=0;points=[];" parent="H6BCaSkyYf0uktOBrBVh-20" vertex="1" connectable="0">
          <mxGeometry x="-0.1863" y="-1" relative="1" as="geometry">
            <mxPoint x="10" as="offset" />
          </mxGeometry>
        </mxCell>
        <mxCell id="H6BCaSkyYf0uktOBrBVh-25" value="" style="endArrow=classic;html=1;rounded=0;exitX=0.426;exitY=-0.5;exitDx=0;exitDy=0;exitPerimeter=0;" parent="1" edge="1">
          <mxGeometry width="50" height="50" relative="1" as="geometry">
            <mxPoint x="350" y="351.15999999999985" as="sourcePoint" />
            <mxPoint x="705" y="350" as="targetPoint" />
          </mxGeometry>
        </mxCell>
        <mxCell id="H6BCaSkyYf0uktOBrBVh-26" value="deduct_points(username,bet)" style="edgeLabel;html=1;align=center;verticalAlign=middle;resizable=0;points=[];" parent="H6BCaSkyYf0uktOBrBVh-25" vertex="1" connectable="0">
          <mxGeometry x="-0.1928" y="1" relative="1" as="geometry">
            <mxPoint x="7" as="offset" />
          </mxGeometry>
        </mxCell>
        <mxCell id="H6BCaSkyYf0uktOBrBVh-37" value="" style="endArrow=none;dashed=1;html=1;dashPattern=1 3;strokeWidth=2;rounded=0;entryX=1;entryY=0.5;entryDx=0;entryDy=0;" parent="1" source="H6BCaSkyYf0uktOBrBVh-44" target="H6BCaSkyYf0uktOBrBVh-38" edge="1">
          <mxGeometry width="50" height="50" relative="1" as="geometry">
            <mxPoint x="718" y="901.5999755859375" as="sourcePoint" />
            <mxPoint x="718" y="110" as="targetPoint" />
          </mxGeometry>
        </mxCell>
        <mxCell id="H6BCaSkyYf0uktOBrBVh-38" value="" style="rounded=0;whiteSpace=wrap;html=1;direction=south;" parent="1" vertex="1">
          <mxGeometry x="713" y="190" width="10" height="50" as="geometry" />
        </mxCell>
        <mxCell id="H6BCaSkyYf0uktOBrBVh-41" value="" style="endArrow=none;dashed=1;html=1;dashPattern=1 3;strokeWidth=2;rounded=0;entryX=1;entryY=0.5;entryDx=0;entryDy=0;exitX=0.6;exitY=1.001;exitDx=0;exitDy=0;exitPerimeter=0;" parent="1" edge="1">
          <mxGeometry width="50" height="50" relative="1" as="geometry">
            <mxPoint x="336.6" y="979.9999999999999" as="sourcePoint" />
            <mxPoint x="333.4" y="779.16" as="targetPoint" />
          </mxGeometry>
        </mxCell>
        <mxCell id="H6BCaSkyYf0uktOBrBVh-43" value="" style="endArrow=none;dashed=1;html=1;dashPattern=1 3;strokeWidth=2;rounded=0;entryX=1;entryY=0.5;entryDx=0;entryDy=0;" parent="1" source="H6BCaSkyYf0uktOBrBVh-46" target="H6BCaSkyYf0uktOBrBVh-44" edge="1">
          <mxGeometry width="50" height="50" relative="1" as="geometry">
            <mxPoint x="718" y="941.5999755859375" as="sourcePoint" />
            <mxPoint x="718" y="290" as="targetPoint" />
          </mxGeometry>
        </mxCell>
        <mxCell id="H6BCaSkyYf0uktOBrBVh-44" value="" style="rounded=0;whiteSpace=wrap;html=1;direction=south;" parent="1" vertex="1">
          <mxGeometry x="713" y="340" width="10" height="50" as="geometry" />
        </mxCell>
        <mxCell id="H6BCaSkyYf0uktOBrBVh-45" value="" style="endArrow=none;dashed=1;html=1;dashPattern=1 3;strokeWidth=2;rounded=0;entryX=1;entryY=0.5;entryDx=0;entryDy=0;" parent="1" target="H6BCaSkyYf0uktOBrBVh-46" edge="1">
          <mxGeometry width="50" height="50" relative="1" as="geometry">
            <mxPoint x="718" y="670" as="sourcePoint" />
            <mxPoint x="718" y="490" as="targetPoint" />
          </mxGeometry>
        </mxCell>
        <mxCell id="H6BCaSkyYf0uktOBrBVh-46" value="" style="rounded=0;whiteSpace=wrap;html=1;direction=south;" parent="1" vertex="1">
          <mxGeometry x="713" y="430" width="10" height="50" as="geometry" />
        </mxCell>
        <mxCell id="H6BCaSkyYf0uktOBrBVh-47" value="" style="endArrow=none;dashed=1;html=1;dashPattern=1 3;strokeWidth=2;rounded=0;entryX=1;entryY=0.5;entryDx=0;entryDy=0;" parent="1" edge="1">
          <mxGeometry width="50" height="50" relative="1" as="geometry">
            <mxPoint x="718" y="980" as="sourcePoint" />
            <mxPoint x="718" y="720" as="targetPoint" />
          </mxGeometry>
        </mxCell>
        <mxCell id="H6BCaSkyYf0uktOBrBVh-49" value="" style="endArrow=none;html=1;rounded=0;exitX=1.001;exitY=0.709;exitDx=0;exitDy=0;exitPerimeter=0;" parent="1" target="Z07Zk6yLMQGGRvkVybok-2" edge="1">
          <mxGeometry width="50" height="50" relative="1" as="geometry">
            <mxPoint x="788.7199999999998" y="879.4749999999999" as="sourcePoint" />
            <mxPoint x="67.27999999999997" y="879.4749999999999" as="targetPoint" />
          </mxGeometry>
        </mxCell>
        <mxCell id="H6BCaSkyYf0uktOBrBVh-50" value="[Status not =200]" style="rounded=0;whiteSpace=wrap;html=1;" parent="1" vertex="1">
          <mxGeometry x="68" y="880" width="100" height="30" as="geometry" />
        </mxCell>
        <mxCell id="H6BCaSkyYf0uktOBrBVh-51" value="[Status =200]" style="rounded=0;whiteSpace=wrap;html=1;" parent="1" vertex="1">
          <mxGeometry x="100" y="500" width="100" height="30" as="geometry" />
        </mxCell>
        <mxCell id="Z07Zk6yLMQGGRvkVybok-1" value="" style="endArrow=none;dashed=1;html=1;dashPattern=1 3;strokeWidth=2;rounded=0;" parent="1" edge="1">
          <mxGeometry width="50" height="50" relative="1" as="geometry">
            <mxPoint x="60" y="980" as="sourcePoint" />
            <mxPoint x="60" y="130" as="targetPoint" />
          </mxGeometry>
        </mxCell>
        <mxCell id="Z07Zk6yLMQGGRvkVybok-2" value="alt" style="shape=umlFrame;whiteSpace=wrap;html=1;pointerEvents=0;" parent="1" vertex="1">
          <mxGeometry x="40" y="500" width="750" height="480" as="geometry" />
        </mxCell>
        <mxCell id="Z07Zk6yLMQGGRvkVybok-3" value="" style="endArrow=none;dashed=1;html=1;rounded=0;" parent="1" edge="1">
          <mxGeometry width="50" height="50" relative="1" as="geometry">
            <mxPoint x="20" y="870" as="sourcePoint" />
            <mxPoint x="790" y="870" as="targetPoint" />
          </mxGeometry>
        </mxCell>
        <mxCell id="p1I2r3HuQcwhxJar93CB-6" value="" style="rounded=0;whiteSpace=wrap;html=1;direction=south;" parent="1" vertex="1">
          <mxGeometry x="330" y="170" width="10" height="770" as="geometry" />
        </mxCell>
        <mxCell id="3EeCmek_eDIR3gRcjCjt-2" value="" style="endArrow=none;dashed=1;html=1;dashPattern=1 3;strokeWidth=2;rounded=0;" parent="1" edge="1">
          <mxGeometry width="50" height="50" relative="1" as="geometry">
            <mxPoint x="717.5" y="720" as="sourcePoint" />
            <mxPoint x="717.5" y="660" as="targetPoint" />
          </mxGeometry>
        </mxCell>
        <mxCell id="3EeCmek_eDIR3gRcjCjt-3" value="" style="endArrow=classic;html=1;rounded=0;dashed=1;entryX=0.652;entryY=0;entryDx=0;entryDy=0;entryPerimeter=0;" parent="1" edge="1">
          <mxGeometry width="50" height="50" relative="1" as="geometry">
            <mxPoint x="708" y="470" as="sourcePoint" />
            <mxPoint x="360" y="470.31999999999994" as="targetPoint" />
          </mxGeometry>
        </mxCell>
        <mxCell id="3EeCmek_eDIR3gRcjCjt-4" value="status,poll" style="edgeLabel;html=1;align=center;verticalAlign=middle;resizable=0;points=[];" parent="3EeCmek_eDIR3gRcjCjt-3" vertex="1" connectable="0">
          <mxGeometry x="0.4105" y="2" relative="1" as="geometry">
            <mxPoint x="34" y="-2" as="offset" />
          </mxGeometry>
        </mxCell>
        <mxCell id="3EeCmek_eDIR3gRcjCjt-20" value="" style="endArrow=classic;html=1;rounded=0;dashed=1;exitX=0.838;exitY=1.2;exitDx=0;exitDy=0;exitPerimeter=0;" parent="1" edge="1">
          <mxGeometry width="50" height="50" relative="1" as="geometry">
            <mxPoint x="330" y="960.04" as="sourcePoint" />
            <mxPoint x="62" y="960" as="targetPoint" />
          </mxGeometry>
        </mxCell>
        <mxCell id="3EeCmek_eDIR3gRcjCjt-21" value="error_message" style="edgeLabel;html=1;align=center;verticalAlign=middle;resizable=0;points=[];" parent="3EeCmek_eDIR3gRcjCjt-20" vertex="1" connectable="0">
          <mxGeometry x="0.4105" y="2" relative="1" as="geometry">
            <mxPoint x="34" y="-2" as="offset" />
          </mxGeometry>
        </mxCell>
        <mxCell id="7RK794Cmye18dGs5IMbZ-1" value="alt" style="shape=umlFrame;whiteSpace=wrap;html=1;pointerEvents=0;" parent="1" vertex="1">
          <mxGeometry x="38" y="320" width="750" height="430" as="geometry" />
        </mxCell>
        <mxCell id="7RK794Cmye18dGs5IMbZ-2" value="[bet&amp;gt;points]" style="text;html=1;align=center;verticalAlign=middle;resizable=0;points=[];autosize=1;strokeColor=none;fillColor=none;" parent="1" vertex="1">
          <mxGeometry x="335" y="320" width="90" height="30" as="geometry" />
        </mxCell>
        <mxCell id="7RK794Cmye18dGs5IMbZ-4" value="[else]" style="text;html=1;align=center;verticalAlign=middle;resizable=0;points=[];autosize=1;strokeColor=none;fillColor=none;" parent="1" vertex="1">
          <mxGeometry x="340" y="570" width="50" height="30" as="geometry" />
        </mxCell>
        <mxCell id="7RK794Cmye18dGs5IMbZ-13" value="" style="endArrow=none;dashed=1;html=1;dashPattern=1 3;strokeWidth=2;rounded=0;entryX=0.999;entryY=0.502;entryDx=0;entryDy=0;entryPerimeter=0;exitX=0.004;exitY=0.504;exitDx=0;exitDy=0;exitPerimeter=0;" parent="1" edge="1">
          <mxGeometry width="50" height="50" relative="1" as="geometry">
            <mxPoint x="38" y="570.86" as="sourcePoint" />
            <mxPoint x="784.25" y="570" as="targetPoint" />
          </mxGeometry>
        </mxCell>
        <mxCell id="7RK794Cmye18dGs5IMbZ-14" value="" style="endArrow=classic;html=1;rounded=0;dashed=1;exitX=0.924;exitY=1.6;exitDx=0;exitDy=0;exitPerimeter=0;" parent="1" edge="1">
          <mxGeometry width="50" height="50" relative="1" as="geometry">
            <mxPoint x="312" y="600.0000000000002" as="sourcePoint" />
            <mxPoint x="68" y="600.1600000000001" as="targetPoint" />
          </mxGeometry>
        </mxCell>
        <mxCell id="7RK794Cmye18dGs5IMbZ-15" value="failure_message" style="edgeLabel;html=1;align=center;verticalAlign=middle;resizable=0;points=[];" parent="7RK794Cmye18dGs5IMbZ-14" vertex="1" connectable="0">
          <mxGeometry x="0.1059" relative="1" as="geometry">
            <mxPoint as="offset" />
          </mxGeometry>
        </mxCell>
        <mxCell id="PXNGgQ2u6Lu84ppyAtco-1" value="" style="rounded=0;whiteSpace=wrap;html=1;direction=south;" parent="1" vertex="1">
          <mxGeometry x="713" y="260" width="10" height="50" as="geometry" />
        </mxCell>
        <mxCell id="PXNGgQ2u6Lu84ppyAtco-2" value="" style="endArrow=classic;html=1;rounded=0;exitX=0.131;exitY=-0.1;exitDx=0;exitDy=0;exitPerimeter=0;" parent="1" source="p1I2r3HuQcwhxJar93CB-6" edge="1">
          <mxGeometry width="50" height="50" relative="1" as="geometry">
            <mxPoint x="360" y="270" as="sourcePoint" />
            <mxPoint x="698" y="270" as="targetPoint" />
          </mxGeometry>
        </mxCell>
        <mxCell id="PXNGgQ2u6Lu84ppyAtco-3" value="get_bet(poll_id)" style="edgeLabel;html=1;align=center;verticalAlign=middle;resizable=0;points=[];" parent="PXNGgQ2u6Lu84ppyAtco-2" vertex="1" connectable="0">
          <mxGeometry x="0.1347" y="-4" relative="1" as="geometry">
            <mxPoint x="-18" y="-4" as="offset" />
          </mxGeometry>
        </mxCell>
        <mxCell id="PXNGgQ2u6Lu84ppyAtco-4" value="" style="endArrow=classic;html=1;rounded=0;dashed=1;entryX=0.106;entryY=0;entryDx=0;entryDy=0;entryPerimeter=0;" parent="1" edge="1">
          <mxGeometry width="50" height="50" relative="1" as="geometry">
            <mxPoint x="698" y="290" as="sourcePoint" />
            <mxPoint x="350" y="290" as="targetPoint" />
          </mxGeometry>
        </mxCell>
        <mxCell id="PXNGgQ2u6Lu84ppyAtco-5" value="bet" style="edgeLabel;html=1;align=center;verticalAlign=middle;resizable=0;points=[];" parent="PXNGgQ2u6Lu84ppyAtco-4" vertex="1" connectable="0">
          <mxGeometry x="0.0842" relative="1" as="geometry">
            <mxPoint as="offset" />
          </mxGeometry>
        </mxCell>
      </root>
    </mxGraphModel>
  </diagram>
  <diagram name="Add Comment" id="gdJmrWMy7ik2V1A8d0Mt">
    <mxGraphModel dx="1050" dy="566" grid="1" gridSize="10" guides="1" tooltips="1" connect="1" arrows="1" fold="1" page="1" pageScale="1" pageWidth="827" pageHeight="1169" math="0" shadow="0">
      <root>
        <mxCell id="0" />
        <mxCell id="1" parent="0" />
        <mxCell id="FRVYHBuoRzuR2F7Kz4Sx-2" value="Poll" style="rounded=0;whiteSpace=wrap;html=1;" parent="1" vertex="1">
          <mxGeometry x="305" y="60" width="120" height="60" as="geometry" />
        </mxCell>
        <mxCell id="FRVYHBuoRzuR2F7Kz4Sx-3" value="Database" style="shape=cylinder3;whiteSpace=wrap;html=1;boundedLbl=1;backgroundOutline=1;size=15;" parent="1" vertex="1">
          <mxGeometry x="690" y="40" width="60" height="80" as="geometry" />
        </mxCell>
        <mxCell id="FRVYHBuoRzuR2F7Kz4Sx-5" value="" style="endArrow=none;dashed=1;html=1;dashPattern=1 3;strokeWidth=2;rounded=0;entryX=0.5;entryY=1;entryDx=0;entryDy=0;" parent="1" source="FRVYHBuoRzuR2F7Kz4Sx-17" target="FRVYHBuoRzuR2F7Kz4Sx-2" edge="1">
          <mxGeometry width="50" height="50" relative="1" as="geometry">
            <mxPoint x="480" y="910.7999267578125" as="sourcePoint" />
            <mxPoint x="479.5" y="130" as="targetPoint" />
          </mxGeometry>
        </mxCell>
        <mxCell id="FRVYHBuoRzuR2F7Kz4Sx-6" value="" style="endArrow=none;dashed=1;html=1;dashPattern=1 3;strokeWidth=2;rounded=0;entryX=0.5;entryY=1;entryDx=0;entryDy=0;entryPerimeter=0;" parent="1" source="FRVYHBuoRzuR2F7Kz4Sx-18" target="FRVYHBuoRzuR2F7Kz4Sx-3" edge="1">
          <mxGeometry width="50" height="50" relative="1" as="geometry">
            <mxPoint x="720" y="911.5999755859375" as="sourcePoint" />
            <mxPoint x="719.5" y="120" as="targetPoint" />
          </mxGeometry>
        </mxCell>
        <mxCell id="FRVYHBuoRzuR2F7Kz4Sx-7" value="Member" style="shape=umlActor;verticalLabelPosition=bottom;verticalAlign=top;html=1;outlineConnect=0;" parent="1" vertex="1">
          <mxGeometry x="40" y="50" width="30" height="60" as="geometry" />
        </mxCell>
        <mxCell id="FRVYHBuoRzuR2F7Kz4Sx-8" value="add_comment(poll_id,comment,username)" style="endArrow=classic;html=1;rounded=0;entryX=0.14;entryY=1.5;entryDx=0;entryDy=0;entryPerimeter=0;" parent="1" target="FRVYHBuoRzuR2F7Kz4Sx-17" edge="1">
          <mxGeometry x="-0.1724" width="50" height="50" relative="1" as="geometry">
            <mxPoint x="40" y="220" as="sourcePoint" />
            <mxPoint x="330" y="220" as="targetPoint" />
            <mxPoint as="offset" />
          </mxGeometry>
        </mxCell>
        <mxCell id="FRVYHBuoRzuR2F7Kz4Sx-13" value="" style="endArrow=classic;html=1;rounded=0;dashed=1;entryX=0.5;entryY=0;entryDx=0;entryDy=0;" parent="1" edge="1">
          <mxGeometry width="50" height="50" relative="1" as="geometry">
            <mxPoint x="700" y="264.5" as="sourcePoint" />
            <mxPoint x="380" y="264.5" as="targetPoint" />
          </mxGeometry>
        </mxCell>
        <mxCell id="FRVYHBuoRzuR2F7Kz4Sx-15" value="" style="endArrow=classic;html=1;rounded=0;dashed=1;exitX=0.833;exitY=0.9;exitDx=0;exitDy=0;exitPerimeter=0;" parent="1" edge="1">
          <mxGeometry width="50" height="50" relative="1" as="geometry">
            <mxPoint x="361" y="370" as="sourcePoint" />
            <mxPoint x="40" y="370.03" as="targetPoint" />
          </mxGeometry>
        </mxCell>
        <mxCell id="o5GyDI41AmqiFGsiD52N-3" value="success_message" style="edgeLabel;html=1;align=center;verticalAlign=middle;resizable=0;points=[];" parent="FRVYHBuoRzuR2F7Kz4Sx-15" vertex="1" connectable="0">
          <mxGeometry x="0.1727" y="4" relative="1" as="geometry">
            <mxPoint x="27" y="-4" as="offset" />
          </mxGeometry>
        </mxCell>
        <mxCell id="FRVYHBuoRzuR2F7Kz4Sx-17" value="" style="rounded=0;whiteSpace=wrap;html=1;direction=south;" parent="1" vertex="1">
          <mxGeometry x="360" y="150" width="10" height="500" as="geometry" />
        </mxCell>
        <mxCell id="FRVYHBuoRzuR2F7Kz4Sx-18" value="" style="rounded=0;whiteSpace=wrap;html=1;direction=south;" parent="1" vertex="1">
          <mxGeometry x="715" y="240" width="10" height="50" as="geometry" />
        </mxCell>
        <mxCell id="FRVYHBuoRzuR2F7Kz4Sx-33" value="" style="endArrow=none;dashed=1;html=1;dashPattern=1 3;strokeWidth=2;rounded=0;entryX=1;entryY=0.5;entryDx=0;entryDy=0;" parent="1" edge="1">
          <mxGeometry width="50" height="50" relative="1" as="geometry">
            <mxPoint x="720" y="390" as="sourcePoint" />
            <mxPoint x="720" y="260" as="targetPoint" />
          </mxGeometry>
        </mxCell>
        <mxCell id="SLKT63tIfdGhnttb9sDi-2" value="alt" style="shape=umlFrame;whiteSpace=wrap;html=1;pointerEvents=0;" parent="1" vertex="1">
          <mxGeometry x="10" y="310" width="770" height="370" as="geometry" />
        </mxCell>
        <mxCell id="SLKT63tIfdGhnttb9sDi-3" value="" style="endArrow=none;dashed=1;html=1;dashPattern=1 3;strokeWidth=2;rounded=0;entryX=1.001;entryY=0.457;entryDx=0;entryDy=0;entryPerimeter=0;exitX=0.001;exitY=0.457;exitDx=0;exitDy=0;exitPerimeter=0;" parent="1" source="SLKT63tIfdGhnttb9sDi-2" target="SLKT63tIfdGhnttb9sDi-2" edge="1">
          <mxGeometry width="50" height="50" relative="1" as="geometry">
            <mxPoint x="10" y="530" as="sourcePoint" />
            <mxPoint x="60" y="480" as="targetPoint" />
          </mxGeometry>
        </mxCell>
        <mxCell id="OA2CIube0-ayDIvumFgG-1" value="[Status not =200]" style="text;html=1;strokeColor=none;fillColor=none;align=center;verticalAlign=middle;whiteSpace=wrap;rounded=0;" parent="1" vertex="1">
          <mxGeometry x="40" y="480" width="110" height="30" as="geometry" />
        </mxCell>
        <mxCell id="cIwv8aw-fZnBNzmi8RHB-1" value="[Status =200]" style="text;html=1;strokeColor=none;fillColor=none;align=center;verticalAlign=middle;whiteSpace=wrap;rounded=0;" parent="1" vertex="1">
          <mxGeometry x="70" y="310" width="80" height="30" as="geometry" />
        </mxCell>
        <mxCell id="cIwv8aw-fZnBNzmi8RHB-4" value="" style="endArrow=none;dashed=1;html=1;dashPattern=1 3;strokeWidth=2;rounded=0;" parent="1" edge="1">
          <mxGeometry width="50" height="50" relative="1" as="geometry">
            <mxPoint x="720" y="680" as="sourcePoint" />
            <mxPoint x="720" y="440" as="targetPoint" />
          </mxGeometry>
        </mxCell>
        <mxCell id="cIwv8aw-fZnBNzmi8RHB-7" value="" style="endArrow=none;dashed=1;html=1;dashPattern=1 3;strokeWidth=2;rounded=0;" parent="1" edge="1">
          <mxGeometry width="50" height="50" relative="1" as="geometry">
            <mxPoint x="40" y="680" as="sourcePoint" />
            <mxPoint x="40" y="150" as="targetPoint" />
            <Array as="points">
              <mxPoint x="40" y="150" />
            </Array>
          </mxGeometry>
        </mxCell>
        <mxCell id="o5GyDI41AmqiFGsiD52N-1" value="status" style="edgeLabel;html=1;align=center;verticalAlign=middle;resizable=0;points=[];" parent="1" vertex="1" connectable="0">
          <mxGeometry x="530" y="265" as="geometry" />
        </mxCell>
        <mxCell id="o5GyDI41AmqiFGsiD52N-6" value="" style="endArrow=none;dashed=1;html=1;dashPattern=1 3;strokeWidth=2;rounded=0;" parent="1" edge="1">
          <mxGeometry width="50" height="50" relative="1" as="geometry">
            <mxPoint x="720" y="450" as="sourcePoint" />
            <mxPoint x="720" y="390" as="targetPoint" />
          </mxGeometry>
        </mxCell>
        <mxCell id="E5csHRUKW7t-ZFuxJ9Sh-7" value="" style="endArrow=none;dashed=1;html=1;dashPattern=1 3;strokeWidth=2;rounded=0;exitX=0.464;exitY=1.002;exitDx=0;exitDy=0;exitPerimeter=0;entryX=1;entryY=0.25;entryDx=0;entryDy=0;" parent="1" source="SLKT63tIfdGhnttb9sDi-2" edge="1">
          <mxGeometry width="50" height="50" relative="1" as="geometry">
            <mxPoint x="440" y="690" as="sourcePoint" />
            <mxPoint x="367.5" y="650" as="targetPoint" />
          </mxGeometry>
        </mxCell>
        <mxCell id="E5csHRUKW7t-ZFuxJ9Sh-11" value="" style="endArrow=classic;html=1;rounded=0;exitX=0.25;exitY=0;exitDx=0;exitDy=0;" parent="1" edge="1">
          <mxGeometry width="50" height="50" relative="1" as="geometry">
            <mxPoint x="370" y="249" as="sourcePoint" />
            <mxPoint x="710" y="250" as="targetPoint" />
          </mxGeometry>
        </mxCell>
        <mxCell id="E5csHRUKW7t-ZFuxJ9Sh-12" value="update_comments(poll_id,comment,username)" style="edgeLabel;html=1;align=center;verticalAlign=middle;resizable=0;points=[];" parent="E5csHRUKW7t-ZFuxJ9Sh-11" vertex="1" connectable="0">
          <mxGeometry x="0.1347" y="-4" relative="1" as="geometry">
            <mxPoint x="-8" y="-13" as="offset" />
          </mxGeometry>
        </mxCell>
        <mxCell id="E5csHRUKW7t-ZFuxJ9Sh-17" value="" style="endArrow=classic;html=1;rounded=0;dashed=1;entryX=0.589;entryY=0.1;entryDx=0;entryDy=0;entryPerimeter=0;exitX=0.678;exitY=1;exitDx=0;exitDy=0;exitPerimeter=0;" parent="1" edge="1">
          <mxGeometry width="50" height="50" relative="1" as="geometry">
            <mxPoint x="360" y="581.02" as="sourcePoint" />
            <mxPoint x="40" y="580" as="targetPoint" />
          </mxGeometry>
        </mxCell>
        <mxCell id="E5csHRUKW7t-ZFuxJ9Sh-18" value="error_message" style="edgeLabel;html=1;align=center;verticalAlign=middle;resizable=0;points=[];" parent="E5csHRUKW7t-ZFuxJ9Sh-17" vertex="1" connectable="0">
          <mxGeometry x="0.7368" y="4" relative="1" as="geometry">
            <mxPoint x="78" y="-4" as="offset" />
          </mxGeometry>
        </mxCell>
      </root>
    </mxGraphModel>
  </diagram>
  <diagram name="Create Discrete Polls" id="1WMuT5Lb-WImAbyLYQdb">
    <mxGraphModel dx="1877" dy="566" grid="1" gridSize="10" guides="1" tooltips="1" connect="1" arrows="1" fold="1" page="1" pageScale="1" pageWidth="827" pageHeight="1169" math="0" shadow="0">
      <root>
        <mxCell id="0" />
        <mxCell id="1" parent="0" />
        <mxCell id="DSX8R6oKp5Wt2xQf0XxT-2" value="Poll&amp;nbsp;" style="rounded=0;whiteSpace=wrap;html=1;" parent="1" vertex="1">
          <mxGeometry x="293.5" y="150" width="120" height="60" as="geometry" />
        </mxCell>
        <mxCell id="DSX8R6oKp5Wt2xQf0XxT-3" value="Database" style="shape=cylinder3;whiteSpace=wrap;html=1;boundedLbl=1;backgroundOutline=1;size=15;" parent="1" vertex="1">
          <mxGeometry x="670" y="130" width="60" height="80" as="geometry" />
        </mxCell>
        <mxCell id="DSX8R6oKp5Wt2xQf0XxT-4" value="create_new_poll(username,question,choices,bet)" style="endArrow=classic;html=1;rounded=0;entryX=0.117;entryY=0.97;entryDx=0;entryDy=0;entryPerimeter=0;" parent="1" target="DSX8R6oKp5Wt2xQf0XxT-8" edge="1">
          <mxGeometry x="0.0968" width="50" height="50" relative="1" as="geometry">
            <mxPoint x="20" y="290" as="sourcePoint" />
            <mxPoint x="330" y="290" as="targetPoint" />
            <mxPoint as="offset" />
          </mxGeometry>
        </mxCell>
        <mxCell id="DSX8R6oKp5Wt2xQf0XxT-8" value="" style="rounded=0;whiteSpace=wrap;html=1;rotation=90;" parent="1" vertex="1">
          <mxGeometry x="164.3" y="430.14" width="378.39" height="11.7" as="geometry" />
        </mxCell>
        <mxCell id="DSX8R6oKp5Wt2xQf0XxT-10" value="" style="endArrow=classic;html=1;rounded=0;exitX=0.102;exitY=0.029;exitDx=0;exitDy=0;exitPerimeter=0;" parent="1" edge="1">
          <mxGeometry width="50" height="50" relative="1" as="geometry">
            <mxPoint x="359.00569999999993" y="310.0007800000002" as="sourcePoint" />
            <mxPoint x="690" y="310.61" as="targetPoint" />
          </mxGeometry>
        </mxCell>
        <mxCell id="DSX8R6oKp5Wt2xQf0XxT-11" value="select_point(username)" style="edgeLabel;html=1;align=center;verticalAlign=middle;resizable=0;points=[];" parent="DSX8R6oKp5Wt2xQf0XxT-10" vertex="1" connectable="0">
          <mxGeometry x="-0.1863" y="-1" relative="1" as="geometry">
            <mxPoint x="21" y="-1" as="offset" />
          </mxGeometry>
        </mxCell>
        <mxCell id="DSX8R6oKp5Wt2xQf0XxT-12" value="" style="endArrow=classic;html=1;rounded=0;dashed=1;entryX=0.25;entryY=0;entryDx=0;entryDy=0;" parent="1" target="DSX8R6oKp5Wt2xQf0XxT-8" edge="1">
          <mxGeometry width="50" height="50" relative="1" as="geometry">
            <mxPoint x="700" y="343" as="sourcePoint" />
            <mxPoint x="490" y="310" as="targetPoint" />
          </mxGeometry>
        </mxCell>
        <mxCell id="DSX8R6oKp5Wt2xQf0XxT-13" value="points" style="edgeLabel;html=1;align=center;verticalAlign=middle;resizable=0;points=[];" parent="DSX8R6oKp5Wt2xQf0XxT-12" vertex="1" connectable="0">
          <mxGeometry x="0.3989" y="1" relative="1" as="geometry">
            <mxPoint x="32" y="-1" as="offset" />
          </mxGeometry>
        </mxCell>
        <mxCell id="DSX8R6oKp5Wt2xQf0XxT-15" value="" style="endArrow=classic;html=1;rounded=0;entryX=0.5;entryY=0;entryDx=0;entryDy=0;" parent="1" target="Y6keQ23VY1cZuk05VSAT-6" edge="1">
          <mxGeometry width="50" height="50" relative="1" as="geometry">
            <mxPoint x="360" y="439" as="sourcePoint" />
            <mxPoint x="690.9250000000002" y="432.83" as="targetPoint" />
          </mxGeometry>
        </mxCell>
        <mxCell id="DSX8R6oKp5Wt2xQf0XxT-16" value="deduct_points(username,bet)" style="edgeLabel;html=1;align=center;verticalAlign=middle;resizable=0;points=[];" parent="DSX8R6oKp5Wt2xQf0XxT-15" vertex="1" connectable="0">
          <mxGeometry x="-0.1928" y="1" relative="1" as="geometry">
            <mxPoint x="20" as="offset" />
          </mxGeometry>
        </mxCell>
        <mxCell id="DSX8R6oKp5Wt2xQf0XxT-18" value="" style="endArrow=classic;html=1;rounded=0;exitX=0.569;exitY=0.115;exitDx=0;exitDy=0;exitPerimeter=0;" parent="1" edge="1">
          <mxGeometry width="50" height="50" relative="1" as="geometry">
            <mxPoint x="360.9995000000001" y="490.00012999999984" as="sourcePoint" />
            <mxPoint x="690" y="490.34" as="targetPoint" />
          </mxGeometry>
        </mxCell>
        <mxCell id="DSX8R6oKp5Wt2xQf0XxT-19" value="insert_poll(username,tags,question,choices,tags)" style="edgeLabel;html=1;align=center;verticalAlign=middle;resizable=0;points=[];" parent="DSX8R6oKp5Wt2xQf0XxT-18" vertex="1" connectable="0">
          <mxGeometry x="-0.3838" y="4" relative="1" as="geometry">
            <mxPoint x="54" y="4" as="offset" />
          </mxGeometry>
        </mxCell>
        <mxCell id="DSX8R6oKp5Wt2xQf0XxT-23" value="" style="endArrow=classic;html=1;rounded=0;dashed=1;" parent="1" edge="1">
          <mxGeometry width="50" height="50" relative="1" as="geometry">
            <mxPoint x="690" y="509" as="sourcePoint" />
            <mxPoint x="357.5" y="509.00000000000006" as="targetPoint" />
          </mxGeometry>
        </mxCell>
        <mxCell id="DSX8R6oKp5Wt2xQf0XxT-24" value="poll,status" style="edgeLabel;html=1;align=center;verticalAlign=middle;resizable=0;points=[];" parent="DSX8R6oKp5Wt2xQf0XxT-23" vertex="1" connectable="0">
          <mxGeometry x="0.3884" y="5" relative="1" as="geometry">
            <mxPoint x="21" y="-5" as="offset" />
          </mxGeometry>
        </mxCell>
        <mxCell id="DSX8R6oKp5Wt2xQf0XxT-40" value="Member" style="shape=umlActor;verticalLabelPosition=bottom;verticalAlign=top;html=1;outlineConnect=0;" parent="1" vertex="1">
          <mxGeometry x="10" y="140" width="30" height="60" as="geometry" />
        </mxCell>
        <mxCell id="DSX8R6oKp5Wt2xQf0XxT-41" value="alt" style="shape=umlFrame;whiteSpace=wrap;html=1;pointerEvents=0;" parent="1" vertex="1">
          <mxGeometry y="520" width="760" height="320" as="geometry" />
        </mxCell>
        <mxCell id="DSX8R6oKp5Wt2xQf0XxT-42" value="" style="endArrow=none;dashed=1;html=1;dashPattern=1 3;strokeWidth=2;rounded=0;" parent="1" edge="1">
          <mxGeometry width="50" height="50" relative="1" as="geometry">
            <mxPoint x="20" y="840" as="sourcePoint" />
            <mxPoint x="20" y="220" as="targetPoint" />
          </mxGeometry>
        </mxCell>
        <mxCell id="DSX8R6oKp5Wt2xQf0XxT-44" value="[Status =200]" style="text;html=1;strokeColor=none;fillColor=none;align=center;verticalAlign=middle;whiteSpace=wrap;rounded=0;" parent="1" vertex="1">
          <mxGeometry x="70" y="520" width="80" height="30" as="geometry" />
        </mxCell>
        <mxCell id="DSX8R6oKp5Wt2xQf0XxT-45" value="" style="endArrow=none;dashed=1;html=1;dashPattern=1 3;strokeWidth=2;rounded=0;exitX=0.001;exitY=0.892;exitDx=0;exitDy=0;exitPerimeter=0;" parent="1" edge="1">
          <mxGeometry width="50" height="50" relative="1" as="geometry">
            <mxPoint x="-8.881784197001252e-15" y="680.5999999999999" as="sourcePoint" />
            <mxPoint x="759.24" y="680" as="targetPoint" />
            <Array as="points">
              <mxPoint x="749.24" y="680" />
            </Array>
          </mxGeometry>
        </mxCell>
        <mxCell id="DSX8R6oKp5Wt2xQf0XxT-46" value="[Status not =200]" style="text;html=1;strokeColor=none;fillColor=none;align=center;verticalAlign=middle;whiteSpace=wrap;rounded=0;" parent="1" vertex="1">
          <mxGeometry x="30" y="680" width="110" height="30" as="geometry" />
        </mxCell>
        <mxCell id="rcO6KNlNK9o3tXN_yz7H-5" value="" style="endArrow=none;dashed=1;html=1;dashPattern=1 3;strokeWidth=2;rounded=0;exitX=0;exitY=0.5;exitDx=0;exitDy=0;entryX=0.5;entryY=1;entryDx=0;entryDy=0;" parent="1" source="DSX8R6oKp5Wt2xQf0XxT-8" target="DSX8R6oKp5Wt2xQf0XxT-2" edge="1">
          <mxGeometry width="50" height="50" relative="1" as="geometry">
            <mxPoint x="420" y="260" as="sourcePoint" />
            <mxPoint x="470" y="210" as="targetPoint" />
          </mxGeometry>
        </mxCell>
        <mxCell id="rcO6KNlNK9o3tXN_yz7H-23" value="" style="endArrow=classic;html=1;rounded=0;dashed=1;" parent="1" edge="1">
          <mxGeometry width="50" height="50" relative="1" as="geometry">
            <mxPoint x="350" y="720" as="sourcePoint" />
            <mxPoint x="20" y="720" as="targetPoint" />
          </mxGeometry>
        </mxCell>
        <mxCell id="rcO6KNlNK9o3tXN_yz7H-24" value="error_status" style="edgeLabel;html=1;align=center;verticalAlign=middle;resizable=0;points=[];" parent="rcO6KNlNK9o3tXN_yz7H-23" vertex="1" connectable="0">
          <mxGeometry x="0.3884" y="5" relative="1" as="geometry">
            <mxPoint x="73" y="-5" as="offset" />
          </mxGeometry>
        </mxCell>
        <mxCell id="Y6keQ23VY1cZuk05VSAT-1" value="alt" style="shape=umlFrame;whiteSpace=wrap;html=1;pointerEvents=0;" parent="1" vertex="1">
          <mxGeometry y="390" width="760" height="260" as="geometry" />
        </mxCell>
        <mxCell id="Y6keQ23VY1cZuk05VSAT-3" value="" style="endArrow=none;dashed=1;html=1;dashPattern=1 3;strokeWidth=2;rounded=0;" parent="1" edge="1">
          <mxGeometry width="50" height="50" relative="1" as="geometry">
            <mxPoint x="700" y="280" as="sourcePoint" />
            <mxPoint x="700" y="210" as="targetPoint" />
          </mxGeometry>
        </mxCell>
        <mxCell id="Y6keQ23VY1cZuk05VSAT-4" value="[bet&amp;lt;point]" style="text;html=1;align=center;verticalAlign=middle;resizable=0;points=[];autosize=1;strokeColor=none;fillColor=none;" parent="1" vertex="1">
          <mxGeometry x="350" y="388" width="80" height="30" as="geometry" />
        </mxCell>
        <mxCell id="Y6keQ23VY1cZuk05VSAT-5" value="" style="endArrow=none;dashed=1;html=1;dashPattern=1 3;strokeWidth=2;rounded=0;entryX=1.008;entryY=0.708;entryDx=0;entryDy=0;entryPerimeter=0;exitX=0.003;exitY=0.708;exitDx=0;exitDy=0;exitPerimeter=0;" parent="1" edge="1">
          <mxGeometry width="50" height="50" relative="1" as="geometry">
            <mxPoint x="10.000000000000027" y="584" as="sourcePoint" />
            <mxPoint x="753.7" y="584" as="targetPoint" />
          </mxGeometry>
        </mxCell>
        <mxCell id="Y6keQ23VY1cZuk05VSAT-6" value="" style="rounded=0;whiteSpace=wrap;html=1;rotation=-90;" parent="1" vertex="1">
          <mxGeometry x="663.87" y="431.22" width="70" height="14.91" as="geometry" />
        </mxCell>
        <mxCell id="Y6keQ23VY1cZuk05VSAT-8" value="" style="rounded=0;whiteSpace=wrap;html=1;rotation=-90;" parent="1" vertex="1">
          <mxGeometry x="665" y="310" width="70" height="14.91" as="geometry" />
        </mxCell>
        <mxCell id="Y6keQ23VY1cZuk05VSAT-11" value="" style="rounded=0;whiteSpace=wrap;html=1;rotation=-90;" parent="1" vertex="1">
          <mxGeometry x="655.96" y="517.9" width="85.8" height="14.91" as="geometry" />
        </mxCell>
        <mxCell id="Y6keQ23VY1cZuk05VSAT-16" value="[else]" style="text;html=1;align=center;verticalAlign=middle;resizable=0;points=[];autosize=1;strokeColor=none;fillColor=none;rotation=0;" parent="1" vertex="1">
          <mxGeometry x="355" y="585" width="50" height="30" as="geometry" />
        </mxCell>
        <mxCell id="Y6keQ23VY1cZuk05VSAT-19" value="" style="endArrow=classic;html=1;rounded=0;dashed=1;" parent="1" edge="1">
          <mxGeometry width="50" height="50" relative="1" as="geometry">
            <mxPoint x="340" y="615" as="sourcePoint" />
            <mxPoint x="20" y="615" as="targetPoint" />
          </mxGeometry>
        </mxCell>
        <mxCell id="Y6keQ23VY1cZuk05VSAT-20" value="error_message" style="edgeLabel;html=1;align=center;verticalAlign=middle;resizable=0;points=[];" parent="Y6keQ23VY1cZuk05VSAT-19" vertex="1" connectable="0">
          <mxGeometry x="0.3884" y="5" relative="1" as="geometry">
            <mxPoint x="21" y="-5" as="offset" />
          </mxGeometry>
        </mxCell>
        <mxCell id="Y6keQ23VY1cZuk05VSAT-21" value="" style="endArrow=classic;html=1;rounded=0;dashed=1;" parent="1" edge="1">
          <mxGeometry width="50" height="50" relative="1" as="geometry">
            <mxPoint x="350" y="560" as="sourcePoint" />
            <mxPoint x="20" y="560" as="targetPoint" />
          </mxGeometry>
        </mxCell>
        <mxCell id="Y6keQ23VY1cZuk05VSAT-22" value="success_message" style="edgeLabel;html=1;align=center;verticalAlign=middle;resizable=0;points=[];" parent="Y6keQ23VY1cZuk05VSAT-21" vertex="1" connectable="0">
          <mxGeometry x="0.3884" y="5" relative="1" as="geometry">
            <mxPoint x="21" y="-5" as="offset" />
          </mxGeometry>
        </mxCell>
        <mxCell id="Y6keQ23VY1cZuk05VSAT-27" value="" style="endArrow=none;dashed=1;html=1;dashPattern=1 3;strokeWidth=2;rounded=0;entryX=1;entryY=0.5;entryDx=0;entryDy=0;" parent="1" target="DSX8R6oKp5Wt2xQf0XxT-8" edge="1">
          <mxGeometry width="50" height="50" relative="1" as="geometry">
            <mxPoint x="354" y="660" as="sourcePoint" />
            <mxPoint x="350" y="630" as="targetPoint" />
          </mxGeometry>
        </mxCell>
        <mxCell id="Y6keQ23VY1cZuk05VSAT-28" value="" style="endArrow=none;dashed=1;html=1;dashPattern=1 3;strokeWidth=2;rounded=0;entryX=0.467;entryY=1.006;entryDx=0;entryDy=0;entryPerimeter=0;" parent="1" target="DSX8R6oKp5Wt2xQf0XxT-41" edge="1">
          <mxGeometry width="50" height="50" relative="1" as="geometry">
            <mxPoint x="354" y="660" as="sourcePoint" />
            <mxPoint x="354" y="780" as="targetPoint" />
          </mxGeometry>
        </mxCell>
        <mxCell id="Y6keQ23VY1cZuk05VSAT-30" value="" style="endArrow=none;dashed=1;html=1;dashPattern=1 3;strokeWidth=2;rounded=0;exitX=1;exitY=0.5;exitDx=0;exitDy=0;" parent="1" source="Y6keQ23VY1cZuk05VSAT-6" edge="1">
          <mxGeometry width="50" height="50" relative="1" as="geometry">
            <mxPoint x="660" y="400" as="sourcePoint" />
            <mxPoint x="699" y="350" as="targetPoint" />
          </mxGeometry>
        </mxCell>
        <mxCell id="Y6keQ23VY1cZuk05VSAT-35" value="" style="endArrow=none;dashed=1;html=1;dashPattern=1 3;strokeWidth=2;rounded=0;entryX=0;entryY=0.5;entryDx=0;entryDy=0;" parent="1" target="Y6keQ23VY1cZuk05VSAT-6" edge="1">
          <mxGeometry width="50" height="50" relative="1" as="geometry">
            <mxPoint x="699" y="480" as="sourcePoint" />
            <mxPoint x="710" y="560" as="targetPoint" />
          </mxGeometry>
        </mxCell>
        <mxCell id="Gk03qAwTaHcDPb3P5iBJ-2" value="" style="endArrow=none;dashed=1;html=1;dashPattern=1 3;strokeWidth=2;rounded=0;exitX=0.922;exitY=1.013;exitDx=0;exitDy=0;exitPerimeter=0;entryX=0;entryY=0.5;entryDx=0;entryDy=0;" parent="1" source="DSX8R6oKp5Wt2xQf0XxT-41" target="Y6keQ23VY1cZuk05VSAT-11" edge="1">
          <mxGeometry width="50" height="50" relative="1" as="geometry">
            <mxPoint x="650" y="690" as="sourcePoint" />
            <mxPoint x="700" y="640" as="targetPoint" />
          </mxGeometry>
        </mxCell>
      </root>
    </mxGraphModel>
  </diagram>
  <diagram name="Create Continuous Polls" id="GKanqGjMQh4j1w5NysHG">
    <mxGraphModel dx="1877" dy="566" grid="1" gridSize="10" guides="1" tooltips="1" connect="1" arrows="1" fold="1" page="1" pageScale="1" pageWidth="827" pageHeight="1169" math="0" shadow="0">
      <root>
        <mxCell id="Uc2M9C3BzYikBTWv7jzC-0" />
        <mxCell id="Uc2M9C3BzYikBTWv7jzC-1" parent="Uc2M9C3BzYikBTWv7jzC-0" />
        <mxCell id="Uc2M9C3BzYikBTWv7jzC-2" value="Poll&amp;nbsp;" style="rounded=0;whiteSpace=wrap;html=1;" parent="Uc2M9C3BzYikBTWv7jzC-1" vertex="1">
          <mxGeometry x="-506.5" y="150" width="120" height="60" as="geometry" />
        </mxCell>
        <mxCell id="Uc2M9C3BzYikBTWv7jzC-3" value="Database" style="shape=cylinder3;whiteSpace=wrap;html=1;boundedLbl=1;backgroundOutline=1;size=15;" parent="Uc2M9C3BzYikBTWv7jzC-1" vertex="1">
          <mxGeometry x="-130" y="130" width="60" height="80" as="geometry" />
        </mxCell>
        <mxCell id="Uc2M9C3BzYikBTWv7jzC-4" value="create_new_poll(username,question,bet)" style="endArrow=classic;html=1;rounded=0;entryX=0.117;entryY=0.97;entryDx=0;entryDy=0;entryPerimeter=0;" parent="Uc2M9C3BzYikBTWv7jzC-1" target="Uc2M9C3BzYikBTWv7jzC-5" edge="1">
          <mxGeometry x="0.0968" width="50" height="50" relative="1" as="geometry">
            <mxPoint x="-780" y="290" as="sourcePoint" />
            <mxPoint x="-470" y="290" as="targetPoint" />
            <mxPoint as="offset" />
          </mxGeometry>
        </mxCell>
        <mxCell id="Uc2M9C3BzYikBTWv7jzC-5" value="" style="rounded=0;whiteSpace=wrap;html=1;rotation=90;" parent="Uc2M9C3BzYikBTWv7jzC-1" vertex="1">
          <mxGeometry x="-635.7" y="430.14" width="378.39" height="11.7" as="geometry" />
        </mxCell>
        <mxCell id="Uc2M9C3BzYikBTWv7jzC-6" value="" style="endArrow=classic;html=1;rounded=0;exitX=0.102;exitY=0.029;exitDx=0;exitDy=0;exitPerimeter=0;" parent="Uc2M9C3BzYikBTWv7jzC-1" edge="1">
          <mxGeometry width="50" height="50" relative="1" as="geometry">
            <mxPoint x="-440.99430000000007" y="310.0007800000002" as="sourcePoint" />
            <mxPoint x="-110" y="310.61" as="targetPoint" />
          </mxGeometry>
        </mxCell>
        <mxCell id="Uc2M9C3BzYikBTWv7jzC-7" value="select_point(username)" style="edgeLabel;html=1;align=center;verticalAlign=middle;resizable=0;points=[];" parent="Uc2M9C3BzYikBTWv7jzC-6" vertex="1" connectable="0">
          <mxGeometry x="-0.1863" y="-1" relative="1" as="geometry">
            <mxPoint x="21" y="-1" as="offset" />
          </mxGeometry>
        </mxCell>
        <mxCell id="Uc2M9C3BzYikBTWv7jzC-8" value="" style="endArrow=classic;html=1;rounded=0;dashed=1;entryX=0.25;entryY=0;entryDx=0;entryDy=0;" parent="Uc2M9C3BzYikBTWv7jzC-1" target="Uc2M9C3BzYikBTWv7jzC-5" edge="1">
          <mxGeometry width="50" height="50" relative="1" as="geometry">
            <mxPoint x="-100" y="343" as="sourcePoint" />
            <mxPoint x="-310" y="310" as="targetPoint" />
          </mxGeometry>
        </mxCell>
        <mxCell id="Uc2M9C3BzYikBTWv7jzC-9" value="points" style="edgeLabel;html=1;align=center;verticalAlign=middle;resizable=0;points=[];" parent="Uc2M9C3BzYikBTWv7jzC-8" vertex="1" connectable="0">
          <mxGeometry x="0.3989" y="1" relative="1" as="geometry">
            <mxPoint x="32" y="-1" as="offset" />
          </mxGeometry>
        </mxCell>
        <mxCell id="Uc2M9C3BzYikBTWv7jzC-10" value="" style="endArrow=classic;html=1;rounded=0;entryX=0.5;entryY=0;entryDx=0;entryDy=0;" parent="Uc2M9C3BzYikBTWv7jzC-1" target="Uc2M9C3BzYikBTWv7jzC-29" edge="1">
          <mxGeometry width="50" height="50" relative="1" as="geometry">
            <mxPoint x="-440" y="439" as="sourcePoint" />
            <mxPoint x="-109.07499999999982" y="432.83" as="targetPoint" />
          </mxGeometry>
        </mxCell>
        <mxCell id="Uc2M9C3BzYikBTWv7jzC-11" value="deduct_points(username,bet)" style="edgeLabel;html=1;align=center;verticalAlign=middle;resizable=0;points=[];" parent="Uc2M9C3BzYikBTWv7jzC-10" vertex="1" connectable="0">
          <mxGeometry x="-0.1928" y="1" relative="1" as="geometry">
            <mxPoint x="20" as="offset" />
          </mxGeometry>
        </mxCell>
        <mxCell id="Uc2M9C3BzYikBTWv7jzC-12" value="" style="endArrow=classic;html=1;rounded=0;exitX=0.569;exitY=0.115;exitDx=0;exitDy=0;exitPerimeter=0;" parent="Uc2M9C3BzYikBTWv7jzC-1" edge="1">
          <mxGeometry width="50" height="50" relative="1" as="geometry">
            <mxPoint x="-439.0004999999999" y="490.00012999999984" as="sourcePoint" />
            <mxPoint x="-110" y="490.34" as="targetPoint" />
          </mxGeometry>
        </mxCell>
        <mxCell id="Uc2M9C3BzYikBTWv7jzC-13" value="insert_poll(username,tags,question,tags)" style="edgeLabel;html=1;align=center;verticalAlign=middle;resizable=0;points=[];" parent="Uc2M9C3BzYikBTWv7jzC-12" vertex="1" connectable="0">
          <mxGeometry x="-0.3838" y="4" relative="1" as="geometry">
            <mxPoint x="54" y="4" as="offset" />
          </mxGeometry>
        </mxCell>
        <mxCell id="Uc2M9C3BzYikBTWv7jzC-14" value="" style="endArrow=classic;html=1;rounded=0;dashed=1;" parent="Uc2M9C3BzYikBTWv7jzC-1" edge="1">
          <mxGeometry width="50" height="50" relative="1" as="geometry">
            <mxPoint x="-110" y="509" as="sourcePoint" />
            <mxPoint x="-442.5" y="509.00000000000006" as="targetPoint" />
          </mxGeometry>
        </mxCell>
        <mxCell id="Uc2M9C3BzYikBTWv7jzC-15" value="poll,status" style="edgeLabel;html=1;align=center;verticalAlign=middle;resizable=0;points=[];" parent="Uc2M9C3BzYikBTWv7jzC-14" vertex="1" connectable="0">
          <mxGeometry x="0.3884" y="5" relative="1" as="geometry">
            <mxPoint x="21" y="-5" as="offset" />
          </mxGeometry>
        </mxCell>
        <mxCell id="Uc2M9C3BzYikBTWv7jzC-16" value="Member" style="shape=umlActor;verticalLabelPosition=bottom;verticalAlign=top;html=1;outlineConnect=0;" parent="Uc2M9C3BzYikBTWv7jzC-1" vertex="1">
          <mxGeometry x="-790" y="140" width="30" height="60" as="geometry" />
        </mxCell>
        <mxCell id="Uc2M9C3BzYikBTWv7jzC-17" value="alt" style="shape=umlFrame;whiteSpace=wrap;html=1;pointerEvents=0;" parent="Uc2M9C3BzYikBTWv7jzC-1" vertex="1">
          <mxGeometry x="-800" y="520" width="760" height="320" as="geometry" />
        </mxCell>
        <mxCell id="Uc2M9C3BzYikBTWv7jzC-18" value="" style="endArrow=none;dashed=1;html=1;dashPattern=1 3;strokeWidth=2;rounded=0;" parent="Uc2M9C3BzYikBTWv7jzC-1" edge="1">
          <mxGeometry width="50" height="50" relative="1" as="geometry">
            <mxPoint x="-780" y="840" as="sourcePoint" />
            <mxPoint x="-780" y="220" as="targetPoint" />
          </mxGeometry>
        </mxCell>
        <mxCell id="Uc2M9C3BzYikBTWv7jzC-19" value="[Status =200]" style="text;html=1;strokeColor=none;fillColor=none;align=center;verticalAlign=middle;whiteSpace=wrap;rounded=0;" parent="Uc2M9C3BzYikBTWv7jzC-1" vertex="1">
          <mxGeometry x="-730" y="520" width="80" height="30" as="geometry" />
        </mxCell>
        <mxCell id="Uc2M9C3BzYikBTWv7jzC-20" value="" style="endArrow=none;dashed=1;html=1;dashPattern=1 3;strokeWidth=2;rounded=0;exitX=0.001;exitY=0.892;exitDx=0;exitDy=0;exitPerimeter=0;" parent="Uc2M9C3BzYikBTWv7jzC-1" edge="1">
          <mxGeometry width="50" height="50" relative="1" as="geometry">
            <mxPoint x="-800" y="680.5999999999999" as="sourcePoint" />
            <mxPoint x="-40.75999999999999" y="680" as="targetPoint" />
            <Array as="points">
              <mxPoint x="-50.75999999999999" y="680" />
            </Array>
          </mxGeometry>
        </mxCell>
        <mxCell id="Uc2M9C3BzYikBTWv7jzC-21" value="[Status not =200]" style="text;html=1;strokeColor=none;fillColor=none;align=center;verticalAlign=middle;whiteSpace=wrap;rounded=0;" parent="Uc2M9C3BzYikBTWv7jzC-1" vertex="1">
          <mxGeometry x="-770" y="680" width="110" height="30" as="geometry" />
        </mxCell>
        <mxCell id="Uc2M9C3BzYikBTWv7jzC-22" value="" style="endArrow=none;dashed=1;html=1;dashPattern=1 3;strokeWidth=2;rounded=0;exitX=0;exitY=0.5;exitDx=0;exitDy=0;entryX=0.5;entryY=1;entryDx=0;entryDy=0;" parent="Uc2M9C3BzYikBTWv7jzC-1" source="Uc2M9C3BzYikBTWv7jzC-5" target="Uc2M9C3BzYikBTWv7jzC-2" edge="1">
          <mxGeometry width="50" height="50" relative="1" as="geometry">
            <mxPoint x="-380" y="260" as="sourcePoint" />
            <mxPoint x="-330" y="210" as="targetPoint" />
          </mxGeometry>
        </mxCell>
        <mxCell id="Uc2M9C3BzYikBTWv7jzC-23" value="" style="endArrow=classic;html=1;rounded=0;dashed=1;" parent="Uc2M9C3BzYikBTWv7jzC-1" edge="1">
          <mxGeometry width="50" height="50" relative="1" as="geometry">
            <mxPoint x="-450" y="720" as="sourcePoint" />
            <mxPoint x="-780" y="720" as="targetPoint" />
          </mxGeometry>
        </mxCell>
        <mxCell id="Uc2M9C3BzYikBTWv7jzC-24" value="error_status" style="edgeLabel;html=1;align=center;verticalAlign=middle;resizable=0;points=[];" parent="Uc2M9C3BzYikBTWv7jzC-23" vertex="1" connectable="0">
          <mxGeometry x="0.3884" y="5" relative="1" as="geometry">
            <mxPoint x="73" y="-5" as="offset" />
          </mxGeometry>
        </mxCell>
        <mxCell id="Uc2M9C3BzYikBTWv7jzC-25" value="alt" style="shape=umlFrame;whiteSpace=wrap;html=1;pointerEvents=0;" parent="Uc2M9C3BzYikBTWv7jzC-1" vertex="1">
          <mxGeometry x="-800" y="390" width="760" height="260" as="geometry" />
        </mxCell>
        <mxCell id="Uc2M9C3BzYikBTWv7jzC-26" value="" style="endArrow=none;dashed=1;html=1;dashPattern=1 3;strokeWidth=2;rounded=0;" parent="Uc2M9C3BzYikBTWv7jzC-1" edge="1">
          <mxGeometry width="50" height="50" relative="1" as="geometry">
            <mxPoint x="-100" y="280" as="sourcePoint" />
            <mxPoint x="-100" y="210" as="targetPoint" />
          </mxGeometry>
        </mxCell>
        <mxCell id="Uc2M9C3BzYikBTWv7jzC-27" value="[bet&amp;lt;point]" style="text;html=1;align=center;verticalAlign=middle;resizable=0;points=[];autosize=1;strokeColor=none;fillColor=none;" parent="Uc2M9C3BzYikBTWv7jzC-1" vertex="1">
          <mxGeometry x="-450" y="388" width="80" height="30" as="geometry" />
        </mxCell>
        <mxCell id="Uc2M9C3BzYikBTWv7jzC-28" value="" style="endArrow=none;dashed=1;html=1;dashPattern=1 3;strokeWidth=2;rounded=0;entryX=1.008;entryY=0.708;entryDx=0;entryDy=0;entryPerimeter=0;exitX=0.003;exitY=0.708;exitDx=0;exitDy=0;exitPerimeter=0;" parent="Uc2M9C3BzYikBTWv7jzC-1" edge="1">
          <mxGeometry width="50" height="50" relative="1" as="geometry">
            <mxPoint x="-790" y="584" as="sourcePoint" />
            <mxPoint x="-46.299999999999955" y="584" as="targetPoint" />
          </mxGeometry>
        </mxCell>
        <mxCell id="Uc2M9C3BzYikBTWv7jzC-29" value="" style="rounded=0;whiteSpace=wrap;html=1;rotation=-90;" parent="Uc2M9C3BzYikBTWv7jzC-1" vertex="1">
          <mxGeometry x="-136.13" y="431.22" width="70" height="14.91" as="geometry" />
        </mxCell>
        <mxCell id="Uc2M9C3BzYikBTWv7jzC-30" value="" style="rounded=0;whiteSpace=wrap;html=1;rotation=-90;" parent="Uc2M9C3BzYikBTWv7jzC-1" vertex="1">
          <mxGeometry x="-135" y="310" width="70" height="14.91" as="geometry" />
        </mxCell>
        <mxCell id="Uc2M9C3BzYikBTWv7jzC-31" value="" style="rounded=0;whiteSpace=wrap;html=1;rotation=-90;" parent="Uc2M9C3BzYikBTWv7jzC-1" vertex="1">
          <mxGeometry x="-144.03999999999996" y="517.9" width="85.8" height="14.91" as="geometry" />
        </mxCell>
        <mxCell id="Uc2M9C3BzYikBTWv7jzC-32" value="[else]" style="text;html=1;align=center;verticalAlign=middle;resizable=0;points=[];autosize=1;strokeColor=none;fillColor=none;rotation=0;" parent="Uc2M9C3BzYikBTWv7jzC-1" vertex="1">
          <mxGeometry x="-445" y="585" width="50" height="30" as="geometry" />
        </mxCell>
        <mxCell id="Uc2M9C3BzYikBTWv7jzC-33" value="" style="endArrow=classic;html=1;rounded=0;dashed=1;" parent="Uc2M9C3BzYikBTWv7jzC-1" edge="1">
          <mxGeometry width="50" height="50" relative="1" as="geometry">
            <mxPoint x="-460" y="615" as="sourcePoint" />
            <mxPoint x="-780" y="615" as="targetPoint" />
          </mxGeometry>
        </mxCell>
        <mxCell id="Uc2M9C3BzYikBTWv7jzC-34" value="error_message" style="edgeLabel;html=1;align=center;verticalAlign=middle;resizable=0;points=[];" parent="Uc2M9C3BzYikBTWv7jzC-33" vertex="1" connectable="0">
          <mxGeometry x="0.3884" y="5" relative="1" as="geometry">
            <mxPoint x="21" y="-5" as="offset" />
          </mxGeometry>
        </mxCell>
        <mxCell id="Uc2M9C3BzYikBTWv7jzC-35" value="" style="endArrow=classic;html=1;rounded=0;dashed=1;" parent="Uc2M9C3BzYikBTWv7jzC-1" edge="1">
          <mxGeometry width="50" height="50" relative="1" as="geometry">
            <mxPoint x="-450" y="560" as="sourcePoint" />
            <mxPoint x="-780" y="560" as="targetPoint" />
          </mxGeometry>
        </mxCell>
        <mxCell id="Uc2M9C3BzYikBTWv7jzC-36" value="success_message" style="edgeLabel;html=1;align=center;verticalAlign=middle;resizable=0;points=[];" parent="Uc2M9C3BzYikBTWv7jzC-35" vertex="1" connectable="0">
          <mxGeometry x="0.3884" y="5" relative="1" as="geometry">
            <mxPoint x="21" y="-5" as="offset" />
          </mxGeometry>
        </mxCell>
        <mxCell id="Uc2M9C3BzYikBTWv7jzC-37" value="" style="endArrow=none;dashed=1;html=1;dashPattern=1 3;strokeWidth=2;rounded=0;entryX=1;entryY=0.5;entryDx=0;entryDy=0;" parent="Uc2M9C3BzYikBTWv7jzC-1" target="Uc2M9C3BzYikBTWv7jzC-5" edge="1">
          <mxGeometry width="50" height="50" relative="1" as="geometry">
            <mxPoint x="-446" y="660" as="sourcePoint" />
            <mxPoint x="-450" y="630" as="targetPoint" />
          </mxGeometry>
        </mxCell>
        <mxCell id="Uc2M9C3BzYikBTWv7jzC-38" value="" style="endArrow=none;dashed=1;html=1;dashPattern=1 3;strokeWidth=2;rounded=0;entryX=0.467;entryY=1.006;entryDx=0;entryDy=0;entryPerimeter=0;" parent="Uc2M9C3BzYikBTWv7jzC-1" target="Uc2M9C3BzYikBTWv7jzC-17" edge="1">
          <mxGeometry width="50" height="50" relative="1" as="geometry">
            <mxPoint x="-446" y="660" as="sourcePoint" />
            <mxPoint x="-446" y="780" as="targetPoint" />
          </mxGeometry>
        </mxCell>
        <mxCell id="Uc2M9C3BzYikBTWv7jzC-39" value="" style="endArrow=none;dashed=1;html=1;dashPattern=1 3;strokeWidth=2;rounded=0;exitX=1;exitY=0.5;exitDx=0;exitDy=0;" parent="Uc2M9C3BzYikBTWv7jzC-1" source="Uc2M9C3BzYikBTWv7jzC-29" edge="1">
          <mxGeometry width="50" height="50" relative="1" as="geometry">
            <mxPoint x="-140" y="400" as="sourcePoint" />
            <mxPoint x="-101" y="350" as="targetPoint" />
          </mxGeometry>
        </mxCell>
        <mxCell id="Uc2M9C3BzYikBTWv7jzC-40" value="" style="endArrow=none;dashed=1;html=1;dashPattern=1 3;strokeWidth=2;rounded=0;entryX=0;entryY=0.5;entryDx=0;entryDy=0;" parent="Uc2M9C3BzYikBTWv7jzC-1" target="Uc2M9C3BzYikBTWv7jzC-29" edge="1">
          <mxGeometry width="50" height="50" relative="1" as="geometry">
            <mxPoint x="-101" y="480" as="sourcePoint" />
            <mxPoint x="-90" y="560" as="targetPoint" />
          </mxGeometry>
        </mxCell>
        <mxCell id="Uc2M9C3BzYikBTWv7jzC-41" value="" style="endArrow=none;dashed=1;html=1;dashPattern=1 3;strokeWidth=2;rounded=0;exitX=0.922;exitY=1.013;exitDx=0;exitDy=0;exitPerimeter=0;entryX=0;entryY=0.5;entryDx=0;entryDy=0;" parent="Uc2M9C3BzYikBTWv7jzC-1" source="Uc2M9C3BzYikBTWv7jzC-17" target="Uc2M9C3BzYikBTWv7jzC-31" edge="1">
          <mxGeometry width="50" height="50" relative="1" as="geometry">
            <mxPoint x="-150" y="690" as="sourcePoint" />
            <mxPoint x="-100" y="640" as="targetPoint" />
          </mxGeometry>
        </mxCell>
      </root>
    </mxGraphModel>
  </diagram>
</mxfile>
